<svg width="456" height="23" viewBox="0 0 456 23" fill="none" xmlns="http://www.w3.org/2000/svg">
<path d="M0.290998 16.1734C0.853376 16.745 5.59646 18.8829 10.3608 19.2428C15.1251 19.6026 61.9723 20.4069 69.5803 20.6186C77.1883 20.8303 110.496 21.4866 128.832 21.8994C147.167 22.3121 183.372 21.6771 196.954 21.1268C210.536 20.5764 249.817 20.46 263.654 20.46C277.491 20.46 325.197 20.9679 341.602 20.735C358.006 20.5022 402.593 21.2113 413.3 21.7934C424.006 22.3755 437.026 21.7935 438.999 21.8676C440.973 21.9417 445.175 22.7249 446.586 22.799L450.523 23C451.372 23 452.825 22.2274 452.878 21.3278C452.932 20.4282 453.94 17.253 454.014 15.6442C454.251 12.9872 454.767 10.3621 455.552 7.81211C456.149 6.30956 456.149 4.63665 455.552 3.1341C455.022 2.39323 451.955 1.51467 450.831 1.45116C449.706 1.38766 422.892 1.08082 418.945 0.879721C414.997 0.678626 324.136 1.51467 317.801 1.18657C311.467 0.858465 256.014 -0.401021 239.472 0.128175C222.929 0.657371 136.896 0.731458 124.163 1.18657C111.43 1.64167 60.0941 2.97525 43.6154 2.11796C27.1366 1.26066 9.27845 2.22385 8.47202 1.37713C7.66559 0.530421 5.90417 2.04392 4.95979 3.88552C4.01542 5.72712 2.3389 11.3577 0.333434 14.3212C0.125001 14.5832 0.00806353 14.9059 0.000401972 15.2402C-0.00725958 15.5746 0.0947815 15.9023 0.290998 16.1734ZM175.371 19.01C177.745 18.5293 180.166 18.3232 182.587 18.396C185.95 18.576 187.892 18.3961 189.059 18.4596C190.226 18.5231 189.929 17.888 191.479 17.8774C193.028 17.8668 193.601 17.9833 194.715 18.0468C195.829 18.1103 196.688 17.9621 197.675 17.9304C198.662 17.8986 199.649 17.9303 200.625 17.9938C201.238 18.063 201.857 18.0345 202.461 17.9092C203.182 17.761 202.217 17.1789 203.204 17.2318C205.244 17.5656 207.315 17.6722 209.379 17.5494C210.962 17.2467 212.575 17.1223 214.186 17.1788C215.735 17.2529 216.414 17.6445 216.998 17.3164C217.581 16.9883 217.454 16.7132 218.133 17.1048C218.363 17.2958 218.64 17.4211 218.935 17.4677C219.23 17.5143 219.532 17.4804 219.81 17.3694C220.383 17.1366 220.255 16.9461 221.656 17.1154C223.315 17.4469 225.005 17.5925 226.696 17.5494C227.986 17.4385 229.266 17.2368 230.527 16.946C231.495 16.6685 232.505 16.5681 233.508 16.6497C234.562 16.8275 235.625 16.9442 236.692 16.999C237.72 17.1193 238.757 17.1441 239.79 17.073C240.534 16.9243 241.294 16.8744 242.05 16.9248C242.834 17.0942 243.641 17.1335 244.438 17.0413C246.074 16.7919 247.727 16.668 249.382 16.6708C250.369 16.7238 262.763 16.4697 265.575 16.6708C268.386 16.8719 278.393 16.6709 281.056 16.8508C283.719 17.0307 291.189 16.9249 292.452 16.999C293.715 17.0731 298.065 17.38 299.614 17.3694C301.164 17.3588 302.851 17.3694 306.076 17.5282C308.75 17.6658 311.573 18.1738 312.878 18.322C313.419 18.322 313.769 18.322 313.493 18.322C313.288 18.3342 313.083 18.3342 312.878 18.322C312.008 18.322 310.607 18.322 310.268 18.322C309.705 18.322 307.456 18.089 307.456 18.089C307.456 18.089 305.334 17.888 304.273 17.9198C303.211 17.9516 298.224 17.6975 297.11 17.634C295.996 17.5705 289.364 17.7715 287.953 17.6974C286.542 17.6234 283.592 17.5599 282.181 17.581C280.769 17.6022 276.684 17.7398 275.814 17.6974C274.944 17.6551 271.718 17.9304 270.88 17.888C270.042 17.8457 267.357 17.888 266.37 17.835L263.283 17.6658C262.582 17.6658 261.585 17.761 260.036 17.7716C258.486 17.7822 256.385 17.6658 254.974 17.687C253.563 17.7082 252.438 17.8246 250.327 17.8034C248.215 17.7822 248.915 17.8034 246.804 17.8034C245.39 17.7171 243.973 17.7171 242.559 17.8034C240.299 17.9516 239.726 18.1949 238.877 18.142C237.8 18.0574 236.718 18.0574 235.641 18.142C234.792 18.2796 234.633 18.5442 233.933 18.5018C233.232 18.4595 209.284 18.7453 204.063 18.83C198.842 18.9147 193.654 18.8299 190.545 19.031C187.436 19.2321 183.478 19.465 180.242 19.4756C177.005 19.4862 174.586 19.1476 175.435 19.01H175.371Z" fill="#4BD1F6"/>
</svg>
